<svg version="1.0" xmlns="http://www.w3.org/2000/svg"
 width="197.000000pt" height="211.000000pt" viewBox="0 0 197.000000 211.000000"
 preserveAspectRatio="xMidYMid meet">

<g id="logo" transform="translate(0.000000,211.000000) scale(0.100000,-0.100000)" stroke="none">
<path d="M1435 2099 c-169 -22 -331 -76 -443 -148 -77 -50 -237 -188 -446
-384 -180 -170 -227 -208 -291 -236 -101 -45 -165 -141 -165 -245 1 -73 36
-171 62 -171 9 0 31 -20 49 -45 47 -65 133 -144 191 -175 45 -25 50 -26 43 -9
-19 46 -17 62 9 79 20 14 24 22 19 46 -4 21 -2 29 8 29 11 0 13 12 11 45 -5
56 19 91 86 128 47 25 56 27 157 24 114 -4 129 -11 118 -54 -5 -22 -2 -21 48
12 53 36 79 41 87 17 8 -24 -90 -106 -178 -149 -72 -36 -80 -43 -55 -43 27 -1
28 -2 11 -13 -10 -7 -78 -51 -150 -98 -130 -86 -181 -126 -140 -113 10 3 -8
-18 -41 -47 -131 -115 -254 -252 -212 -236 27 10 21 -1 -38 -74 -31 -38 -53
-69 -50 -69 3 0 35 25 72 55 191 154 414 256 859 394 274 85 453 209 493 341
15 52 14 124 -4 167 -20 47 -12 54 14 12 39 -64 40 -173 2 -247 -11 -20 -39
-55 -63 -78 -120 -114 -262 -178 -698 -314 -285 -89 -483 -198 -683 -375 -105
-94 -127 -128 -30 -49 124 102 303 207 458 269 209 84 429 112 635 82 240 -36
431 -31 579 15 66 20 166 66 159 73 -1 2 -28 -3 -58 -11 -101 -28 -226 1 -308
70 l-32 28 35 40 c83 91 135 194 160 315 39 186 -37 389 -209 558 -95 93 -169
140 -280 176 l-79 26 59 47 c67 52 196 119 267 138 67 17 58 31 -15 23 -122
-13 -239 -58 -339 -131 -38 -28 -53 -33 -78 -28 -19 4 -31 13 -31 22 0 9 29
44 64 78 103 101 265 170 490 209 49 8 109 16 135 16 l46 1 -40 9 c-51 10
-179 9 -270 -2z m-615 -543 c0 -22 -83 -109 -129 -134 -22 -13 -41 -19 -41
-14 0 20 63 94 107 127 53 38 63 42 63 21z m-629 -354 c-8 -15 -7 -23 4 -32
13 -11 11 -16 -16 -32 -17 -10 -34 -17 -36 -14 -8 8 15 67 34 88 20 22 28 17
14 -10z"/>
<path d="M834 1908 c-4 -7 -14 -24 -23 -37 -15 -23 -14 -24 6 -13 11 6 23 23
25 37 6 28 3 32 -8 13z"/>
<path d="M671 1809 c-81 -147 -164 -236 -196 -209 -10 8 -14 3 -19 -26 -4 -20
-5 -38 -2 -41 9 -9 265 241 256 252 -4 5 -10 23 -12 39 -3 29 -3 29 -27 -15z"/>
<path d="M1470 1708 c-19 -6 -69 -8 -110 -5 l-74 6 67 -37 c37 -20 93 -57 123
-81 115 -90 237 -278 269 -414 37 -157 -3 -337 -109 -487 -18 -25 -35 -49 -38
-55 -4 -6 21 -9 68 -7 41 2 89 -1 106 -7 l30 -11 -18 28 c-48 73 -58 145 -29
201 15 30 111 121 127 121 5 0 -9 21 -32 48 -100 112 -106 215 -17 305 l36 35
-47 12 c-142 35 -261 162 -293 310 -6 27 -14 50 -17 49 -4 0 -23 -5 -42 -11z"/>
</g>
</svg>
